<svg width="72" height="63" viewBox="0 0 72 63" fill="none" xmlns="http://www.w3.org/2000/svg">
<g clip-path="url(#clip0_14_63)">
<path d="M36 31.5C39.5601 31.5 43.0402 30.5763 46.0003 28.8457C48.9604 27.115 51.2675 24.6552 52.6298 21.7773C53.9922 18.8993 54.3487 15.7325 53.6541 12.6773C52.9596 9.62213 51.2453 6.81575 48.7279 4.61308C46.2106 2.4104 43.0033 0.910356 39.5116 0.302639C36.02 -0.305078 32.4008 0.00682425 29.1117 1.1989C25.8226 2.39098 23.0114 4.4097 21.0335 6.99978C19.0557 9.58985 18 12.635 18 15.75C18.0048 19.9259 19.9027 23.9295 23.2773 26.8823C26.652 29.8351 31.2276 31.4958 36 31.5ZM36 5.25001C38.3734 5.25001 40.6935 5.86582 42.6668 7.01958C44.6402 8.17333 46.1783 9.81321 47.0866 11.7318C47.9948 13.6505 48.2324 15.7617 47.7694 17.7985C47.3064 19.8353 46.1635 21.7062 44.4853 23.1746C42.8071 24.6431 40.6689 25.6431 38.3411 26.0483C36.0133 26.4534 33.6005 26.2455 31.4078 25.4507C29.2151 24.656 27.3409 23.3102 26.0224 21.5835C24.7038 19.8568 24 17.8267 24 15.75C24 12.9652 25.2643 10.2945 27.5147 8.32539C29.7652 6.35625 32.8174 5.25001 36 5.25001Z" fill="#DEC333"/>
<path d="M36 36.75C28.8416 36.7569 21.9786 39.2482 16.9169 43.6773C11.8551 48.1063 9.00794 54.1114 9 60.375C9 61.0712 9.31607 61.7389 9.87868 62.2312C10.4413 62.7234 11.2044 63 12 63C12.7956 63 13.5587 62.7234 14.1213 62.2312C14.6839 61.7389 15 61.0712 15 60.375C15 55.5016 17.2125 50.8279 21.1508 47.3819C25.089 43.9359 30.4305 42 36 42C41.5695 42 46.911 43.9359 50.8492 47.3819C54.7875 50.8279 57 55.5016 57 60.375C57 61.0712 57.3161 61.7389 57.8787 62.2312C58.4413 62.7234 59.2043 63 60 63C60.7957 63 61.5587 62.7234 62.1213 62.2312C62.6839 61.7389 63 61.0712 63 60.375C62.9921 54.1114 60.1449 48.1063 55.0831 43.6773C50.0214 39.2482 43.1584 36.7569 36 36.75Z" fill="#DEC333"/>
</g>
<defs>
<clipPath id="clip0_14_63">
<rect width="72" height="63" fill="white"/>
</clipPath>
</defs>
</svg>
