<svg width="75" height="67" viewBox="0 0 75 67" fill="none" xmlns="http://www.w3.org/2000/svg">
<g clip-path="url(#clip0_16_68)">
<path d="M37.5 22.3334C35.0277 22.3334 32.611 22.9883 30.5554 24.2153C28.4998 25.4423 26.8976 27.1863 25.9515 29.2267C25.0054 31.2672 24.7579 33.5124 25.2402 35.6785C25.7225 37.8447 26.913 39.8344 28.6612 41.3961C30.4093 42.9578 32.6366 44.0213 35.0614 44.4521C37.4861 44.883 39.9995 44.6619 42.2836 43.8167C44.5676 42.9715 46.5199 41.5403 47.8934 39.7039C49.2669 37.8676 50 35.7086 50 33.5C50 30.5385 48.6831 27.6982 46.3388 25.604C43.9946 23.5099 40.8152 22.3334 37.5 22.3334ZM37.5 39.0834C36.2639 39.0834 35.0555 38.7559 34.0277 38.1424C32.9999 37.5289 32.1988 36.6569 31.7258 35.6367C31.2527 34.6165 31.1289 33.4938 31.3701 32.4108C31.6113 31.3277 32.2065 30.3329 33.0806 29.552C33.9547 28.7712 35.0683 28.2394 36.2807 28.024C37.4931 27.8086 38.7497 27.9191 39.8918 28.3417C41.0338 28.7643 42.0099 29.4799 42.6967 30.3981C43.3835 31.3163 43.75 32.3958 43.75 33.5C43.75 34.9808 43.0915 36.401 41.9194 37.4481C40.7473 38.4951 39.1576 39.0834 37.5 39.0834Z" fill="#DEC333"/>
<path d="M66.5438 38.8042L65.1563 38.0895C65.7809 35.0534 65.7809 31.941 65.1563 28.9049L66.5438 28.1902C67.6108 27.6403 68.5461 26.9081 69.2963 26.0353C70.0465 25.1624 70.5969 24.1662 70.9161 23.1033C71.2353 22.0405 71.317 20.9319 71.1566 19.8408C70.9962 18.7498 70.5968 17.6976 69.9813 16.7444C69.3657 15.7912 68.546 14.9557 67.569 14.2855C66.5919 13.6153 65.4767 13.1236 64.2869 12.8385C63.0972 12.5533 61.8562 12.4803 60.6349 12.6236C59.4135 12.7669 58.2358 13.1237 57.1688 13.6736L55.7781 14.391C53.1517 12.3864 50.1333 10.8324 46.875 9.80713V8.375C46.875 6.15381 45.8873 4.0236 44.1291 2.45298C42.371 0.882363 39.9864 0 37.5 0C35.0136 0 32.629 0.882363 30.8709 2.45298C29.1127 4.0236 28.125 6.15381 28.125 8.375V9.80713C24.8668 10.836 21.8495 12.3939 19.225 14.4022L17.8281 13.6792C15.6733 12.5686 13.1128 12.2682 10.71 12.8441C8.30715 13.42 6.25884 14.825 5.01564 16.75C3.77243 18.675 3.43618 20.9624 4.08083 23.1089C4.72549 25.2554 6.29825 27.0852 8.45314 28.1958L9.84064 28.9105C9.21598 31.9466 9.21598 35.059 9.84064 38.0951L8.45314 38.8098C6.29825 39.9203 4.72549 41.7502 4.08083 43.8967C3.43618 46.0432 3.77243 48.3306 5.01564 50.2556C6.25884 52.1806 8.30715 53.5856 10.71 54.1615C13.1128 54.7374 15.6733 54.437 17.8281 53.3264L19.2188 52.609C21.8462 54.6139 24.8656 56.168 28.125 57.1929V58.625C28.125 60.8462 29.1127 62.9764 30.8709 64.547C32.629 66.1176 35.0136 67 37.5 67C39.9864 67 42.371 66.1176 44.1291 64.547C45.8873 62.9764 46.875 60.8462 46.875 58.625V57.1929C50.1332 56.164 53.1505 54.6061 55.775 52.5978L57.1719 53.318C59.3268 54.4286 61.8873 54.729 64.2901 54.1531C66.6929 53.5772 68.7412 52.1722 69.9844 50.2472C71.2276 48.3222 71.5639 46.0348 70.9192 43.8883C70.2745 41.7418 68.7018 39.912 66.5469 38.8014L66.5438 38.8042ZM58.5813 28.2628C59.6395 31.6884 59.6395 35.306 58.5813 38.7316C58.3965 39.3278 58.4386 39.962 58.7011 40.5345C58.9635 41.107 59.4314 41.5854 60.0313 41.8945L63.4188 43.6421C64.1369 44.0123 64.661 44.6222 64.8758 45.3376C65.0906 46.053 64.9785 46.8154 64.5641 47.4569C64.1497 48.0985 63.467 48.5667 62.6661 48.7586C61.8653 48.9505 61.0119 48.8503 60.2938 48.4801L56.9 46.7269C56.2997 46.4163 55.6007 46.293 54.9133 46.3764C54.2258 46.4598 53.589 46.7452 53.1031 47.1875C50.3216 49.7242 46.8174 51.5341 42.9688 52.4219C42.297 52.5762 41.7018 52.9258 41.2769 53.4155C40.852 53.9053 40.6215 54.5074 40.6219 55.127V58.625C40.6219 59.3654 40.2926 60.0755 39.7066 60.599C39.1205 61.1225 38.3257 61.4167 37.4969 61.4167C36.6681 61.4167 35.8732 61.1225 35.2872 60.599C34.7011 60.0755 34.3719 59.3654 34.3719 58.625V55.1298C34.3722 54.5102 34.1418 53.9081 33.7169 53.4183C33.292 52.9286 32.6968 52.579 32.025 52.4247C28.1761 51.5333 24.6729 49.7195 21.8938 47.1792C21.4079 46.7368 20.7711 46.4514 20.0836 46.368C19.3962 46.2846 18.6972 46.4079 18.0969 46.7185L14.7094 48.4689C14.3539 48.6551 13.9606 48.7767 13.5523 48.8265C13.144 48.8764 12.7286 48.8536 12.3302 48.7595C11.9317 48.6654 11.5581 48.5018 11.2307 48.2782C10.9033 48.0546 10.6287 47.7753 10.4226 47.4565C10.2166 47.1376 10.0831 46.7855 10.03 46.4204C9.97688 46.0553 10.0051 45.6845 10.1131 45.3292C10.2211 44.9739 10.4067 44.6411 10.6592 44.3502C10.9117 44.0592 11.2261 43.8157 11.5844 43.6338L14.9719 41.8862C15.5717 41.577 16.0396 41.0986 16.3021 40.5261C16.5645 39.9536 16.6067 39.3194 16.4219 38.7232C15.3636 35.2977 15.3636 31.68 16.4219 28.2545C16.6033 27.6595 16.5592 27.0276 16.2963 26.4574C16.0334 25.8873 15.5666 25.4109 14.9688 25.1027L11.5813 23.3551C10.8631 22.9849 10.339 22.375 10.1242 21.6596C9.90941 20.9442 10.0215 20.1818 10.4359 19.5403C10.8504 18.8987 11.5331 18.4305 12.3339 18.2386C13.1347 18.0467 13.9881 18.1469 14.7063 18.5171L18.1 20.2703C18.6987 20.5816 19.3962 20.7064 20.0829 20.625C20.7696 20.5437 21.4066 20.2608 21.8938 19.8208C24.6753 17.2842 28.1795 15.4743 32.0281 14.5865C32.702 14.4317 33.2988 14.0805 33.7239 13.5884C34.149 13.0964 34.3781 12.4917 34.375 11.8702V8.375C34.375 7.6346 34.7043 6.92453 35.2903 6.40099C35.8764 5.87745 36.6712 5.58333 37.5 5.58333C38.3288 5.58333 39.1237 5.87745 39.7097 6.40099C40.2958 6.92453 40.625 7.6346 40.625 8.375V11.8702C40.6247 12.4898 40.8551 13.0919 41.28 13.5817C41.7049 14.0714 42.3001 14.421 42.9719 14.5753C46.8219 15.4663 50.3262 17.2801 53.1063 19.8208C53.5921 20.2632 54.229 20.5486 54.9164 20.632C55.6038 20.7154 56.3028 20.5921 56.9031 20.2815L60.2906 18.5311C60.6462 18.3449 61.0394 18.2234 61.4477 18.1735C61.8561 18.1236 62.2714 18.1464 62.6698 18.2405C63.0683 18.3346 63.4419 18.4982 63.7693 18.7218C64.0967 18.9454 64.3713 19.2247 64.5774 19.5435C64.7835 19.8624 64.9169 20.2145 64.97 20.5796C65.0231 20.9447 64.9949 21.3155 64.8869 21.6709C64.7789 22.0262 64.5934 22.3589 64.3409 22.6498C64.0883 22.9408 63.7739 23.1843 63.4156 23.3663L60.0281 25.1138C59.4314 25.4229 58.9659 25.8996 58.7042 26.4697C58.4425 27.0398 58.3993 27.6713 58.5813 28.2656V28.2628Z" fill="#DEC333"/>
</g>
<defs>
<clipPath id="clip0_16_68">
<rect width="75" height="67" fill="white"/>
</clipPath>
</defs>
</svg>
