<svg width="65" height="63" viewBox="0 0 65 63" fill="none" xmlns="http://www.w3.org/2000/svg">
<g clip-path="url(#clip0_16_66)">
<path d="M46.0417 26.3524C35.5902 26.3524 27.0833 34.5949 27.0833 44.7274C27.0833 54.8021 35.5902 63 46.0417 63C56.4931 63 65 54.7575 65 44.625C65 34.5503 56.4931 26.3524 46.0417 26.3524ZM46.0417 57.75C38.5748 57.75 32.5 51.9067 32.5 44.7274C32.5 37.4902 38.5748 31.6024 46.0417 31.6024C53.5085 31.6024 59.5833 37.4456 59.5833 44.625C59.5833 51.8621 53.5085 57.75 46.0417 57.75ZM50.6648 45.3941C51.7238 46.4205 51.7238 48.0795 50.6648 49.1059C50.1367 49.6178 49.4433 49.875 48.75 49.875C48.0567 49.875 47.3633 49.6178 46.8352 49.1059L44.1269 46.4809C43.6177 45.9874 43.3333 45.3206 43.3333 44.625V39.375C43.3333 37.926 44.544 36.75 46.0417 36.75C47.5394 36.75 48.75 37.926 48.75 39.375V43.5382L50.6648 45.3941ZM65 18.375V23.625C65 25.074 63.7894 26.25 62.2917 26.25C60.794 26.25 59.5833 25.074 59.5833 23.625V18.375C59.5833 14.0332 55.9379 10.5 51.4583 10.5H13.5417C9.06208 10.5 5.41667 14.0332 5.41667 18.375V21H29.7917C31.2867 21 32.5 22.176 32.5 23.625C32.5 25.074 31.2867 26.25 29.7917 26.25H5.41667V49.875C5.41667 54.2168 9.06208 57.75 13.5417 57.75H24.375C25.87 57.75 27.0833 58.926 27.0833 60.375C27.0833 61.824 25.87 63 24.375 63H13.5417C6.07479 63 0 57.1121 0 49.875V18.375C0 11.1379 6.07479 5.25 13.5417 5.25H16.25V2.625C16.25 1.176 17.4633 0 18.9583 0C20.4533 0 21.6667 1.176 21.6667 2.625V5.25H43.3333V2.625C43.3333 1.176 44.544 0 46.0417 0C47.5394 0 48.75 1.176 48.75 2.625V5.25H51.4583C58.9252 5.25 65 11.1379 65 18.375Z" fill="#DEC333"/>
</g>
<defs>
<clipPath id="clip0_16_66">
<rect width="65" height="63" fill="white"/>
</clipPath>
</defs>
</svg>
