<svg width="66" height="71" viewBox="0 0 66 71" fill="none" xmlns="http://www.w3.org/2000/svg">
<path d="M52.25 8.09644H13.75C10.1046 8.10075 6.60978 9.53378 4.0321 12.0812C1.45443 14.6286 0.00436661 18.0824 0 21.685L0 43.4266C0.00436661 47.0292 1.45443 50.4829 4.0321 53.0303C6.60978 55.5778 10.1046 57.0108 13.75 57.0151H30.25V62.4505H19.25C18.5207 62.4505 17.8212 62.7368 17.3055 63.2465C16.7897 63.7562 16.5 64.4474 16.5 65.1682C16.5 65.889 16.7897 66.5802 17.3055 67.0899C17.8212 67.5996 18.5207 67.8859 19.25 67.8859H46.75C47.4793 67.8859 48.1788 67.5996 48.6945 67.0899C49.2103 66.5802 49.5 65.889 49.5 65.1682C49.5 64.4474 49.2103 63.7562 48.6945 63.2465C48.1788 62.7368 47.4793 62.4505 46.75 62.4505H35.75V57.0151H52.25C55.8954 57.0108 59.3902 55.5778 61.9679 53.0303C64.5456 50.4829 65.9956 47.0292 66 43.4266V21.685C65.9956 18.0824 64.5456 14.6286 61.9679 12.0812C59.3902 9.53378 55.8954 8.10075 52.25 8.09644ZM13.75 13.5318H52.25C54.438 13.5318 56.5365 14.3908 58.0836 15.9198C59.6308 17.4488 60.5 19.5226 60.5 21.685V40.7089H5.5V21.685C5.5 19.5226 6.36919 17.4488 7.91637 15.9198C9.46354 14.3908 11.562 13.5318 13.75 13.5318ZM52.25 51.5797H13.75C12.0498 51.5727 10.3933 51.0468 9.00708 50.0738C7.62089 49.1009 6.57273 47.7285 6.006 46.1443H59.994C59.4273 47.7285 58.3791 49.1009 56.9929 50.0738C55.6067 51.0468 53.9502 51.5727 52.25 51.5797Z" fill="#DEC333"/>
</svg>
