<svg width="23" height="27" viewBox="0 0 23 27" fill="none" xmlns="http://www.w3.org/2000/svg">
<g clip-path="url(#clip0_18_102)">
<path d="M22.0416 12.3753C21.7875 12.3753 21.5437 12.2567 21.364 12.0458C21.1843 11.8348 21.0833 11.5486 21.0833 11.2503C21.0813 8.86405 20.2729 6.57625 18.8356 4.88894C17.3982 3.20163 15.4493 2.25265 13.4166 2.25027C13.1625 2.25027 12.9187 2.13174 12.739 1.92077C12.5593 1.70979 12.4583 1.42364 12.4583 1.12527C12.4583 0.826902 12.5593 0.540754 12.739 0.329776C12.9187 0.118797 13.1625 0.000270639 13.4166 0.000270639C15.9574 0.00354619 18.3934 1.18986 20.19 3.29894C21.9866 5.40801 22.9972 8.26759 23 11.2503C23 11.5486 22.899 11.8348 22.7193 12.0458C22.5396 12.2567 22.2958 12.3753 22.0416 12.3753ZM19.1666 11.2503C19.1666 9.46006 18.5608 7.74317 17.4825 6.4773C16.4042 5.21143 14.9416 4.50027 13.4166 4.50027C13.1625 4.50027 12.9187 4.6188 12.739 4.82978C12.5593 5.04075 12.4583 5.3269 12.4583 5.62527C12.4583 5.92364 12.5593 6.20979 12.739 6.42077C12.9187 6.63174 13.1625 6.75027 13.4166 6.75027C14.4333 6.75027 15.4083 7.22438 16.1272 8.06829C16.8461 8.9122 17.25 10.0568 17.25 11.2503C17.25 11.5486 17.3509 11.8348 17.5307 12.0458C17.7104 12.2567 17.9541 12.3753 18.2083 12.3753C18.4625 12.3753 18.7062 12.2567 18.886 12.0458C19.0657 11.8348 19.1666 11.5486 19.1666 11.2503ZM21.2587 24.9348L22.1308 23.7546C22.6858 23.1009 22.9975 22.2156 22.9975 21.2926C22.9975 20.3696 22.6858 19.4842 22.1308 18.8305C22.1011 18.7956 19.7953 16.7133 19.7953 16.7133C19.2419 16.0949 18.5069 15.7506 17.7428 15.7518C16.9788 15.7531 16.2446 16.0998 15.6927 16.72L13.8661 18.5268C12.3751 17.8024 11.0207 16.7393 9.88067 15.3987C8.74063 14.0581 7.83744 12.4663 7.22294 10.7148L8.75627 8.57727C9.285 7.92947 9.58072 7.06738 9.58197 6.17022C9.58322 5.27307 9.2899 4.40985 8.76298 3.76002C8.76298 3.76002 6.98719 1.05665 6.95748 1.02177C6.4107 0.375737 5.66936 0.00817041 4.89364 -0.00151273C4.11791 -0.0111959 3.37008 0.337782 2.81173 0.970021L1.70965 2.09502C-4.80127 10.9623 9.21914 27.2939 17.0219 27.0003C17.8098 27.0056 18.5907 26.8256 19.3184 26.4709C20.046 26.1161 20.7058 25.5938 21.2587 24.9348Z" fill="#DEC333"/>
</g>
<defs>
<clipPath id="clip0_18_102">
<rect width="23" height="27" fill="white"/>
</clipPath>
</defs>
</svg>
